<svg width="16" height="16" viewBox="0 0 16 16" fill="none" xmlns="http://www.w3.org/2000/svg">
    <g clip-path="url(#clip0)">
        <rect width="16" height="16" fill="white"/>
        <path d="M3.43561 15.6772H0.25315V4.90026H3.43561V15.6772ZM1.84438 3.32711C2.91123 3.32711 3.68876 2.62191 3.68876 1.66356C3.68876 0.687122 2.91123 0 1.84438 0C0.777532 0 0 0.669039 0 1.64548C0 2.62191 0.777532 3.32711 1.84438 3.32711ZM9.49313 15.9485C10.9578 15.9485 11.9704 15.2613 12.8745 14.1945H12.9468L13.1819 15.6953H15.7857V4.90026H12.6033V12.0427C11.9885 12.8926 11.4822 13.2361 10.6865 13.2361C9.76436 13.2361 9.34847 12.7479 9.34847 11.1928V4.90026H6.14793V11.5907C6.14793 14.2849 7.14245 15.9485 9.49313 15.9485Z" fill="black"/>
    </g>
    <defs>
        <clipPath id="clip0">
            <rect width="16" height="16" fill="white"/>
        </clipPath>
    </defs>
</svg>
